<?xml version="1.0" encoding="UTF-8" standalone="no"?>
<!-- Generator: Adobe Illustrator 15.0.2, SVG Export Plug-In . SVG Version: 6.00 Build 0)  -->

<svg
   xmlns:dc="http://purl.org/dc/elements/1.1/"
   xmlns:cc="http://creativecommons.org/ns#"
   xmlns:rdf="http://www.w3.org/1999/02/22-rdf-syntax-ns#"
   xmlns:svg="http://www.w3.org/2000/svg"
   xmlns="http://www.w3.org/2000/svg"
   xmlns:sodipodi="http://sodipodi.sourceforge.net/DTD/sodipodi-0.dtd"
   xmlns:inkscape="http://www.inkscape.org/namespaces/inkscape"
   version="1.1"
   id="Ebene_1"
   x="0px"
   y="0px"
   width="587.4519"
   height="217.90727"
   viewBox="0 0 587.45189 217.90726"
   enable-background="new 0 0 841.89 595.275"
   xml:space="preserve"
   sodipodi:docname="logo.svg"
   inkscape:version="0.92.2 5c3e80d, 2017-08-06"><metadata
     id="metadata35"><rdf:RDF><cc:Work
         rdf:about=""><dc:format>image/svg+xml</dc:format><dc:type
           rdf:resource="http://purl.org/dc/dcmitype/StillImage" /></cc:Work></rdf:RDF></metadata><defs
     id="defs33" /><sodipodi:namedview
     pagecolor="#ffffff"
     bordercolor="#666666"
     borderopacity="1"
     objecttolerance="10"
     gridtolerance="10"
     guidetolerance="10"
     inkscape:pageopacity="0"
     inkscape:pageshadow="2"
     inkscape:window-width="1366"
     inkscape:window-height="713"
     id="namedview31"
     showgrid="false"
     inkscape:zoom="0.73"
     inkscape:cx="340.86033"
     inkscape:cy="116.96863"
     inkscape:window-x="0"
     inkscape:window-y="27"
     inkscape:window-maximized="1"
     inkscape:current-layer="Ebene_1" /><g
     id="g22"
     transform="translate(-126.46211,-196.69887)"><g
       id="g10"><path
         d="m 502.527,236.387 c 0.955,0.061 1.912,0.119 2.867,0.186 7.334,0.506 14.344,2.226 20.895,5.629 4.678,2.433 8.826,5.58 12.529,9.334 4.018,4.076 7.342,8.645 9.846,13.8 1.836,3.784 3.111,7.754 3.994,11.86 1.082,5.034 1.438,10.131 1.225,15.258 -0.346,8.226 -2.166,16.091 -6.045,23.411 -2.707,5.106 -6.234,9.588 -10.432,13.55 -6.729,6.355 -14.615,10.499 -23.676,12.42 -3.354,0.709 -6.736,1.154 -10.162,1.262 -0.156,0.006 -0.309,0.05 -0.465,0.076 h -4.031 c -0.877,-0.063 -1.754,-0.123 -2.627,-0.187 -10.494,-0.76 -20.072,-4.003 -28.371,-10.606 -6.551,-5.211 -11.68,-11.571 -15.18,-19.203 -1.779,-3.879 -2.969,-7.946 -3.762,-12.134 -0.898,-4.737 -1.182,-9.52 -0.943,-14.324 0.506,-10.118 3.17,-19.563 9.041,-27.935 6.869,-9.793 15.852,-16.758 27.447,-20.125 3.535,-1.026 7.137,-1.71 10.809,-1.992 1.164,-0.091 2.332,-0.136 3.496,-0.207 0.191,-0.011 0.379,-0.047 0.568,-0.073 z m -1.594,93.058 c 3.73,-0.031 7.34,-0.336 10.881,-1.211 7.711,-1.904 14.125,-5.905 19.221,-12.005 5.205,-6.225 7.912,-13.459 8.646,-21.479 0.252,-2.745 0.281,-5.495 0.117,-8.248 -0.178,-2.987 -0.57,-5.945 -1.363,-8.835 -2.477,-9.025 -7.545,-16.226 -15.332,-21.436 -5.826,-3.893 -12.342,-5.676 -19.293,-6.021 -3.799,-0.186 -7.576,-0.015 -11.32,0.665 -6.545,1.189 -12.369,3.891 -17.387,8.287 -4.865,4.265 -8.383,9.443 -10.559,15.534 -1.65,4.608 -2.309,9.379 -2.377,14.251 -0.057,3.785 0.209,7.544 1.033,11.241 1.492,6.673 4.492,12.564 9.176,17.585 4.135,4.429 9.053,7.616 14.781,9.567 4.499,1.534 9.145,2.055 13.776,2.105"
         id="path2"
         inkscape:connector-curvature="0"
         style="clip-rule:evenodd;fill-rule:evenodd" /><path
         d="m 692.285,340.774 c -0.395,0.953 -0.697,1.147 -1.775,1.147 -3.52,0 -7.041,0.002 -10.564,0 -1.24,0 -1.697,-0.46 -1.697,-1.708 v -100.83 c 0,-1.293 0.455,-1.745 1.768,-1.746 3.521,0 7.043,-0.012 10.561,0.019 0.436,0.003 0.91,0.175 1.281,0.405 0.225,0.14 0.291,0.537 0.428,0.821 v 101.892 z"
         id="path4"
         inkscape:connector-curvature="0"
         style="clip-rule:evenodd;fill-rule:evenodd" /><path
         d="m 405.102,279.938 c 1.776,2.358 3.536,4.696 5.294,7.034 3.729,4.957 7.46,9.914 11.191,14.873 4.798,6.378 9.593,12.752 14.392,19.127 4.701,6.248 9.4,12.498 14.107,18.74 0.35,0.46 0.5,0.929 0.25,1.462 -0.254,0.539 -0.746,0.713 -1.301,0.745 -0.254,0.015 -0.51,0.002 -0.768,0.002 -4.338,0 -8.674,-0.003 -13.012,0.006 -0.742,10e-4 -1.285,-0.248 -1.75,-0.866 -8.18,-10.933 -16.378,-21.854 -24.574,-32.779 -4.654,-6.201 -9.311,-12.402 -13.968,-18.604 -0.037,-0.052 -0.082,-0.097 -0.148,-0.175 -0.565,0.526 -1.126,1.049 -1.685,1.569 -3.775,3.528 -7.548,7.06 -11.322,10.591 -2.081,1.943 -4.162,3.888 -6.254,5.819 -0.27,0.248 -0.381,0.495 -0.381,0.863 0.01,10.562 0.008,21.127 0.008,31.688 0,0.127 0.004,0.256 0,0.385 -0.027,0.967 -0.52,1.494 -1.487,1.498 -3.698,0.014 -7.394,0.011 -11.091,10e-4 -0.938,-0.004 -1.432,-0.532 -1.451,-1.473 -0.002,-0.11 0,-0.224 0,-0.336 v -100.633 -0.096 c 0,-1.274 0.46,-1.739 1.724,-1.739 3.377,-10e-4 6.753,-10e-4 10.131,-10e-4 0.223,0 0.448,-0.007 0.672,10e-4 0.978,0.045 1.458,0.527 1.501,1.5 0.007,0.145 10e-4,0.289 10e-4,0.432 v 48.783 0.676 c 0.838,-0.782 1.595,-1.484 2.347,-2.19 4.458,-4.182 8.912,-8.367 13.372,-12.547 5.848,-5.48 11.7,-10.958 17.549,-16.44 4.902,-4.597 9.801,-9.197 14.7,-13.795 2.066,-1.939 4.138,-3.87 6.197,-5.814 0.43,-0.406 0.92,-0.605 1.509,-0.605 5.169,0.001 10.339,0 15.509,0.001 0.881,0 1.377,0.32 1.563,0.979 0.154,0.544 -0.055,0.967 -0.436,1.331 -1.498,1.423 -2.992,2.845 -4.492,4.261 -2.654,2.502 -5.316,5.001 -7.969,7.503 -3.682,3.468 -7.359,6.933 -11.035,10.405 -3.771,3.557 -7.535,7.12 -11.305,10.675 -2.513,2.372 -5.032,4.736 -7.588,7.143"
         id="path6"
         inkscape:connector-curvature="0"
         style="clip-rule:evenodd;fill-rule:evenodd" /><path
         d="m 569.923,289.792 v -50.223 c 0,-0.146 0,-0.289 0.002,-0.434 0.02,-0.948 0.498,-1.442 1.438,-1.496 0.064,-0.004 0.129,-0.001 0.191,-0.001 14.359,0.001 28.715,-0.034 43.072,0.021 6.604,0.023 12.922,1.508 18.949,4.203 5.244,2.345 9.852,5.615 13.852,9.729 6.521,6.696 10.852,14.596 12.98,23.708 1.227,5.247 1.732,10.559 1.621,15.934 -0.15,7.22 -1.404,14.23 -4.141,20.938 -2.285,5.601 -5.557,10.574 -9.68,14.988 -6.328,6.778 -14.016,11.233 -23.023,13.416 -3.887,0.941 -7.824,1.36 -11.824,1.356 -13.908,-0.021 -27.816,-0.008 -41.727,-0.01 -0.238,0 -0.479,-0.017 -0.713,-0.052 -0.514,-0.083 -0.832,-0.391 -0.924,-0.902 -0.049,-0.266 -0.07,-0.539 -0.07,-0.807 -0.003,-16.79 -0.003,-33.578 -0.003,-50.368 m 14.047,38.707 h 0.619 c 9.348,0 18.693,0.008 28.041,-0.011 1.676,-0.003 3.359,-0.072 5.029,-0.203 3.473,-0.273 6.783,-1.194 9.949,-2.643 4.139,-1.896 7.615,-4.656 10.609,-8.066 2.791,-3.178 4.996,-6.714 6.621,-10.612 1.73,-4.151 2.66,-8.482 3.004,-12.96 0.316,-4.087 0.189,-8.153 -0.426,-12.2 -0.729,-4.781 -2.285,-9.294 -4.689,-13.496 -2.672,-4.673 -6.121,-8.674 -10.549,-11.765 -5.301,-3.702 -11.254,-5.423 -17.68,-5.454 -10.004,-0.048 -20.008,-0.015 -30.01,-0.017 h -0.52 v 77.427 z"
         id="path8"
         inkscape:connector-curvature="0"
         style="clip-rule:evenodd;fill-rule:evenodd" /></g><g
       id="g20"><path
         d="m 313.057,291.184 c -0.602,1.953 -1.921,3.383 -3.333,4.79 -9.465,9.433 -18.9,18.897 -28.345,28.349 -3.403,3.405 -7.04,3.396 -10.457,-0.024 -9.748,-9.755 -19.497,-19.51 -29.24,-29.267 -3.32,-3.323 -3.318,-6.953 0.01,-10.283 9.799,-9.815 19.601,-19.625 29.404,-29.433 3.189,-3.192 6.937,-3.194 10.126,-0.004 9.503,9.505 18.992,19.023 28.513,28.512 1.413,1.407 2.728,2.842 3.323,4.797 v 2.563 z"
         id="path12"
         inkscape:connector-curvature="0"
         style="clip-rule:evenodd;fill:#31afe1;fill-rule:evenodd" /><path
         d="m 219.101,382.575 c -1.944,-0.617 -3.352,-1.962 -4.753,-3.372 -9.425,-9.474 -18.878,-18.916 -28.322,-28.371 -3.379,-3.384 -3.382,-6.993 -0.011,-10.369 9.773,-9.781 19.547,-19.563 29.324,-29.343 3.25,-3.251 6.974,-3.264 10.206,-0.029 9.775,9.779 19.549,19.563 29.321,29.347 3.357,3.362 3.366,7.045 0.024,10.389 -9.526,9.538 -19.066,19.062 -28.57,28.617 -1.36,1.366 -2.759,2.596 -4.655,3.132 h -2.564 z"
         id="path14"
         inkscape:connector-curvature="0"
         style="clip-rule:evenodd;fill:#31afe1;fill-rule:evenodd" /><path
         d="m 184.799,266.464 c 0,-10.877 0.098,-21.754 -0.063,-32.628 -0.045,-3.147 0.706,-5.605 3.11,-7.682 1.932,-1.671 3.647,-3.599 5.458,-5.414 7.166,-7.173 14.329,-14.344 21.497,-21.515 3.37,-3.37 7.006,-3.367 10.374,0.002 9.749,9.751 19.495,19.505 29.243,29.259 3.349,3.353 3.346,7.037 -0.002,10.389 -11.527,11.543 -23.059,23.082 -34.589,34.621 -10.182,10.194 -20.362,20.386 -30.545,30.576 -1.887,1.889 -3.559,1.448 -4.244,-1.169 -0.211,-0.81 -0.229,-1.685 -0.229,-2.532 -0.014,-11.301 -0.01,-22.605 -0.01,-33.907"
         id="path16"
         inkscape:connector-curvature="0"
         style="clip-rule:evenodd;fill:#31afe1;fill-rule:evenodd" /><path
         d="m 161.487,290.03 c 0,9.98 0.014,19.964 -0.021,29.944 -0.004,0.947 -0.154,1.951 -0.494,2.832 -0.666,1.732 -1.916,1.947 -3.224,0.641 -4.591,-4.582 -9.169,-9.179 -13.75,-13.768 -5.296,-5.304 -10.594,-10.609 -15.887,-15.917 -2.191,-2.197 -2.2,-5.245 -0.018,-7.453 9.748,-9.859 19.498,-19.717 29.252,-29.574 0.645,-0.651 1.252,-1.535 2.349,-1.121 1.047,0.396 1.461,1.341 1.609,2.388 0.094,0.649 0.167,1.31 0.168,1.965 0.01,10.021 0.006,20.041 0.006,30.063 z"
         id="path18"
         inkscape:connector-curvature="0"
         style="clip-rule:evenodd;fill:#31afe1;fill-rule:evenodd" /></g></g><g
     id="g28"
     transform="translate(-126.46211,-196.69887)"><path
       d="m 705.784,239.297 h -2.541 v 6.49 h -0.825 v -6.49 h -2.54 v -0.792 h 5.906 z"
       id="path24"
       inkscape:connector-curvature="0" /><path
       d="m 713.914,238.505 v 7.282 h -0.825 v -6.028 l -2.695,3.465 -2.738,-3.465 v 6.028 h -0.825 v -7.282 h 0.957 l 2.606,3.454 2.563,-3.454 z"
       id="path26"
       inkscape:connector-curvature="0" /></g><g
     aria-label="improved"
     style="font-style:normal;font-variant:normal;font-weight:normal;font-stretch:normal;font-size:90.49736786px;line-height:1.25;font-family:Norican;-inkscape-font-specification:Norican;letter-spacing:0px;word-spacing:0px;fill:#ff0000;fill-opacity:1;fill-rule:nonzero;stroke:#000000;stroke-width:2.25679588;stroke-miterlimit:4;stroke-dasharray:none;stroke-opacity:1"
     id="text4005"><path
       d="m 253.52427,190.79623 q 0,2.91642 1.54659,2.91642 0.97214,0 6.09796,-5.03745 5.17002,-5.08164 8.219,-8.43994 v 4.94907 q -8.70507,8.57251 -11.66567,11.04705 -5.39096,4.463 -9.23533,4.63975 -1.94428,0 -2.91642,-1.72334 -0.97214,-1.76752 -0.97214,-4.50719 0,-2.73967 2.47454,-12.85876 2.47453,-10.11909 3.26992,-12.24012 0.83958,-2.12103 1.36983,-2.96061 0.53026,-0.83957 1.32565,-1.32564 0.79539,-0.48607 1.36983,-0.7512 0.61864,-0.30932 1.85591,-0.44188 1.72333,-0.13257 4.24206,-0.13257 -6.98173,22.35922 -6.98173,26.86641 z m 7.60036,-38.62046 q -3.13736,0 -3.13736,-3.18155 0,-2.2094 1.63497,-4.24206 1.67915,-2.07684 3.93274,-2.07684 2.2536,0 3.3583,0.88376 1.10471,0.88376 1.10471,2.69548 0,1.76752 -2.12103,3.84437 -2.07685,2.07684 -4.77233,2.07684 z"
       style="fill:#ff0000;fill-opacity:1;fill-rule:nonzero;stroke:#000000;stroke-width:2.25679588;stroke-miterlimit:4;stroke-dasharray:none;stroke-opacity:1"
       id="path827" /><path
       d="m 309.15717,200.95951 q -2.6071,0 -2.6071,-3.88856 0,-5.17002 3.04899,-11.9308 3.09317,-6.80498 3.09317,-11.26799 0,-1.19308 -0.83958,-2.20941 -0.83957,-1.01632 -2.56291,-1.01632 -1.67915,0 -4.02112,2.47453 -2.34198,2.47454 -4.19788,5.92122 -1.8559,3.40249 -3.66762,7.73293 -2.78385,6.84916 -4.463,12.81457 h -8.48413 q 0,-5.78865 3.62343,-17.58689 2.16522,-7.02592 2.16522,-8.57251 0,-1.59077 -0.61864,-2.2536 -0.61863,-0.70701 -1.23727,-0.70701 -0.61863,0 -1.14889,0.17676 -2.87223,1.32564 -5.70027,5.2142 -2.78386,3.84437 -4.81651,8.61669 -3.80018,8.83764 -5.39096,15.11236 h -8.43994 q 0.35351,-5.70028 3.04899,-17.80784 2.73966,-12.15174 4.94907,-15.6868 0.79539,-1.41402 2.65129,-1.76752 1.90009,-0.3977 6.45147,-0.3977 -0.61863,3.09318 -2.56291,8.9702 -1.90009,5.87703 -2.29779,7.24686 10.03072,-17.58689 20.01724,-17.58689 1.72334,0 2.56292,1.94428 0.83957,1.90009 0.83957,4.94908 0,3.00479 -2.34197,10.69353 3.13736,-6.14215 8.43994,-11.62149 2.65129,-2.69547 5.74446,-4.37462 3.09317,-1.67916 5.92122,-1.67916 4.94907,0 4.94907,6.80498 0,6.27472 -3.44668,16.438 -0.97213,2.82804 -0.97213,3.756 0,0.88376 0.39769,0.88376 0.44188,0 0.92795,-0.22094 0.48607,-0.26513 1.14889,-0.79539 0.70701,-0.57445 1.36984,-1.14889 0.66282,-0.61864 1.72333,-1.63496 1.06052,-1.06052 1.9001,-1.85591 0.83957,-0.83957 2.2094,-2.20941 l 2.34198,-2.34197 v 4.94908 q -5.52352,5.70027 -11.53312,10.78191 -6.00959,5.08164 -8.17481,5.08164 z"
       style="fill:#ff0000;fill-opacity:1;fill-rule:nonzero;stroke:#000000;stroke-width:2.25679588;stroke-miterlimit:4;stroke-dasharray:none;stroke-opacity:1"
       id="path829" /><path
       d="m 353.96397,162.47161 q 5.70028,0 5.70028,6.71661 0,5.83283 -4.06531,13.47739 -4.02113,7.60036 -8.70507,10.51678 4.55138,0 11.9308,-6.49566 3.53506,-3.04898 8.17481,-7.8213 v 5.08163 q -1.06051,1.01633 -3.00479,2.96061 -1.94428,1.90009 -2.82804,2.73967 -0.83958,0.79539 -2.47454,2.34197 -1.63496,1.54659 -2.47454,2.20941 -0.83957,0.66282 -2.29778,1.76753 -1.41402,1.1047 -2.38616,1.59077 -0.92796,0.44188 -2.34198,1.14889 -1.36983,0.66283 -2.56291,0.92795 -3.0048,0.66283 -5.03745,0.66283 -2.03266,0 -2.6071,-0.70701 -0.57445,-0.70701 -0.57445,-1.54659 0,-0.88376 0.0884,-1.19308 0.0884,-0.35351 0.30931,-0.7512 0.26513,-0.39769 0.44188,-0.70701 0.22095,-0.30932 0.61864,-0.79539 0.44188,-0.53026 0.66282,-0.79538 0.22094,-0.26513 0.70701,-0.83958 3.40249,-3.80018 5.96541,-9.45627 2.6071,-5.65608 2.6071,-9.23532 0,-3.62343 -2.91642,-3.62343 -4.99327,0 -9.19114,8.08643 -3.71181,7.15848 -6.80498,17.14501 l -1.19308,3.80018 q -0.70701,2.65129 -4.24206,17.10082 h -7.95387 q 1.67915,-6.14215 3.57924,-15.73098 1.90009,-9.58884 3.84437,-18.20553 1.98847,-8.61669 4.50719,-15.37748 0.88376,-2.29779 2.29779,-2.91642 1.45821,-0.61864 4.33044,-0.61864 h 2.9606 q -2.29778,7.99806 -4.77232,16.04031 2.82804,-5.56771 8.04225,-11.13542 2.6071,-2.78385 5.70027,-4.55138 3.13736,-1.81172 5.9654,-1.81172 z"
       style="fill:#ff0000;fill-opacity:1;fill-rule:nonzero;stroke:#000000;stroke-width:2.25679588;stroke-miterlimit:4;stroke-dasharray:none;stroke-opacity:1"
       id="path831" /><path
       d="m 382.2444,167.3765 5.30258,-0.61863 q 1.28146,0 1.28146,0.61863 0,0.61864 -3.04899,6.93754 -6.98173,14.31697 -6.98173,17.23339 0,0.0442 -0.0442,0.3535 0,0.26513 0,0.44189 0.0442,0.13256 0.0884,0.39769 0.0442,0.26513 0.13257,0.39769 0.30931,0.3977 0.88376,0.3977 1.14889,0 7.02592,-5.21421 5.92121,-5.25839 8.08643,-8.17481 v 4.94908 q -15.77517,15.77517 -21.25451,15.77517 -1.94427,0 -2.91641,-1.72334 -0.97214,-1.76752 -0.97214,-3.44667 0,-1.67915 0.66282,-3.84437 0.66282,-2.20941 1.76752,-5.03745 1.1489,-2.82805 2.12104,-5.12583 0.97214,-2.29779 2.12103,-4.94908 1.19308,-2.69548 1.36983,-3.13736 -2.51872,2.56292 -5.87702,5.6119 -3.31412,3.04898 -6.23054,6.05378 v -4.94908 l 8.9702,-9.3237 q -5.39095,-1.32564 -6.98173,-4.15369 -0.3535,-0.57444 -0.3535,-1.01632 0,-3.09318 2.34197,-5.43515 2.34197,-2.34197 6.23053,-2.34197 1.98847,0 1.98847,2.34197 0,1.36983 -0.79539,3.0048 -0.79539,1.59077 -1.90009,2.16522 2.03266,1.81171 6.98173,1.81171 z"
       style="fill:#ff0000;fill-opacity:1;fill-rule:nonzero;stroke:#000000;stroke-width:2.25679588;stroke-miterlimit:4;stroke-dasharray:none;stroke-opacity:1"
       id="path833" /><path
       d="m 419.89272,163.04606 q 0,1.28146 -0.97214,1.90009 -8.79344,0 -13.4332,5.03745 -4.33044,4.77233 -4.33044,10.73773 0,5.92121 2.6071,9.45627 2.65129,3.53505 6.45147,3.53505 3.80019,0 7.33524,-3.97694 -3.31411,-2.07684 -5.12583,-5.47933 -1.76753,-3.40249 -1.76753,-6.89335 0,-3.53506 2.12104,-5.70028 2.12103,-2.2094 6.14215,-2.2094 4.02112,0 5.83284,2.16522 1.8559,2.16522 1.8559,5.30258 0,6.45147 -4.1095,11.44473 1.10471,0.44188 1.90009,0.44188 0.79539,0 1.63497,-0.3535 0.88376,-0.3977 1.98846,-1.32565 1.10471,-0.97214 1.94428,-1.81171 0.83958,-0.83958 2.43035,-2.51873 1.59078,-1.67915 2.69548,-2.73966 v 4.86069 q -3.66762,3.88856 -5.9654,5.52353 -2.2536,1.63496 -4.46301,1.63496 -2.16522,0 -3.97693,-0.61864 -3.40249,4.15369 -8.08644,6.80498 -4.63975,2.6071 -9.63302,2.6071 -7.15848,0 -10.20746,-6.76079 -1.72334,-3.80018 -1.72334,-8.52831 0,-10.73773 7.60036,-16.92407 7.64456,-6.18635 20.28237,-6.18635 0.88377,0 0.97214,0.57445 z m 2.51873,14.71466 q 0,-4.06531 -3.62343,-4.06531 -3.57924,0 -3.57924,4.28625 0,2.2536 1.19308,4.68395 1.23726,2.38616 3.31411,3.80018 0.88376,-1.45821 1.76753,-4.02112 0.92795,-2.60711 0.92795,-4.68395 z"
       style="fill:#ff0000;fill-opacity:1;fill-rule:nonzero;stroke:#000000;stroke-width:2.25679588;stroke-miterlimit:4;stroke-dasharray:none;stroke-opacity:1"
       id="path835" /><path
       d="m 457.49684,187.74725 q 0.79539,1.50239 0.88377,2.43035 1.14889,0 2.78385,-1.54659 1.63496,-1.54659 2.6071,-2.51873 0.97214,-1.01632 2.87224,-2.9606 1.90009,-1.94428 3.22573,-3.26993 v 4.94908 q -7.20267,7.4678 -9.05857,8.48413 -1.81172,1.01632 -2.78386,1.01632 -1.45821,0 -3.3583,-4.06531 -3.62343,6.3631 -5.52352,7.90968 -2.47454,1.94428 -4.55138,2.29779 -2.03266,0.39769 -3.93275,0.39769 -2.69548,0 -4.68394,-3.66762 -3.756,-6.98173 -3.756,-21.60801 0,-5.52352 0.57445,-9.50046 0.26513,-2.16522 6.93754,-2.16522 h 3.53505 q -1.36983,7.29105 -1.36983,14.05184 0,6.7166 1.36983,11.5773 1.41403,4.8607 3.09318,4.8607 1.32564,0 4.90488,-6.05378 1.67915,-2.82804 1.63496,-2.82804 -0.0442,-0.0442 -0.0442,-2.29779 0,-2.25359 0.39769,-5.83283 0.44188,-3.57925 1.28146,-7.02592 0.83957,-3.44668 2.29778,-5.65609 1.5024,-2.2536 3.3583,-2.2536 2.2536,0 2.2536,4.33045 0,4.28625 -1.8559,11.04704 -1.85591,6.76079 -3.09318,9.89815 z"
       style="fill:#ff0000;fill-opacity:1;fill-rule:nonzero;stroke:#000000;stroke-width:2.25679588;stroke-miterlimit:4;stroke-dasharray:none;stroke-opacity:1"
       id="path837" /><path
       d="m 477.64666,174.62336 q 3.3583,4.33044 7.42361,4.33044 2.56292,0 4.41882,-2.51872 1.90009,-2.51873 1.90009,-5.30258 0,-2.78386 -1.06052,-3.71181 -1.01632,-0.97214 -3.00479,-0.97214 -1.94428,0 -3.66762,0.88376 -1.67915,0.88377 -2.87223,2.20941 -2.29779,2.6071 -3.13736,5.08164 z m 24.2593,5.6119 v 4.8607 q -7.02591,7.73293 -12.54944,11.75405 -5.52352,4.02112 -10.51678,4.02112 -9.98653,0 -12.46106,-6.49566 -0.92795,-2.56291 -0.92795,-6.18634 0,-6.45147 2.69547,-12.28431 2.69548,-5.87703 7.73293,-9.63302 5.08164,-3.80019 11.26799,-3.80019 10.4284,0 10.4284,7.77712 0,5.03745 -4.06531,8.79345 -4.06531,3.7118 -9.14695,3.7118 -2.03265,0 -4.24206,-1.19308 -2.20941,-1.19308 -3.756,-3.57924 -1.90009,3.97694 -1.90009,7.77712 0,10.20747 7.42361,10.20747 1.94428,0 4.77233,-1.85591 2.87223,-1.8559 5.03745,-3.88856 2.20941,-2.07684 5.56771,-5.43514 3.3583,-3.40249 4.63975,-4.55138 z"
       style="fill:#ff0000;fill-opacity:1;fill-rule:nonzero;stroke:#000000;stroke-width:2.25679588;stroke-miterlimit:4;stroke-dasharray:none;stroke-opacity:1"
       id="path839" /><path
       d="m 520.50918,189.07289 q -4.77233,5.56771 -9.58884,8.70507 -4.81651,3.09317 -7.24685,3.09317 -2.38617,0 -3.66762,-0.92795 -1.28146,-0.88376 -1.90009,-2.38616 -1.06052,-2.73967 -1.06052,-6.7166 0,-3.97694 2.16522,-9.19114 2.16522,-5.25839 5.52352,-9.45627 3.3583,-4.19787 7.64455,-6.93754 4.33044,-2.78386 7.64456,-2.78386 3.31411,0 6.45147,0.92796 l 5.87703,-20.98938 q 1.23726,-5.08164 2.43035,-5.92122 1.63496,-1.19308 3.31411,-1.28145 1.72334,-0.13257 3.66762,-0.13257 h 1.54658 q -0.17675,1.5024 -1.54658,6.14216 -2.73967,8.17481 -7.60037,25.80589 -4.81651,17.58689 -4.81651,20.98938 0,1.63496 0.30932,2.2094 0.30932,0.57445 1.14889,0.57445 0.88376,0 3.57924,-2.56291 2.73967,-2.56292 7.99806,-8.08644 v 4.94908 q -0.61863,0.61863 -2.29778,2.29778 -1.63497,1.67915 -2.43035,2.47454 l -2.34198,2.29778 q -1.50239,1.54659 -2.43035,2.34198 -0.88376,0.79538 -2.2094,1.98846 -1.32565,1.19308 -2.20941,1.85591 -0.88377,0.61863 -1.90009,1.28145 -1.9001,1.23727 -3.18155,1.23727 -3.62343,0 -3.62343,-5.87702 0,-2.82805 0.7512,-5.92122 z m 5.12582,-21.78476 q -0.17675,-0.61864 -1.59077,-1.1489 -1.36983,-0.57444 -2.56291,-0.57444 -3.80019,0 -7.37943,3.49086 -3.57924,3.49087 -5.65608,8.48413 -2.07685,4.94907 -2.07685,9.45627 0,5.6119 3.62343,5.6119 2.82805,0 7.07011,-3.18155 4.24206,-3.22574 4.68395,-5.03745 z"
       style="fill:#ff0000;fill-opacity:1;fill-rule:nonzero;stroke:#000000;stroke-width:2.25679588;stroke-miterlimit:4;stroke-dasharray:none;stroke-opacity:1"
       id="path841" /></g></svg>